<svg xmlns="http://www.w3.org/2000/svg"
version="1.1"
xmlns:xlink="http://www.w3.org/1999/xlink"
width="16"
height="16"
x="0"
y="0"
viewBox="0 0 512 512"
style="enable-background:new 0 0 512 512"
xml:space="preserve">
<g>
<path
d="M436.535 74.406C388.635 26.449 324.933.028 257.063 0 117.222 0 3.407 113.807 3.352 253.692c-.019 44.716 11.664 88.362 33.866 126.838L1.225 512l134.496-35.281c37.057 20.213 78.78 30.866 121.242 30.881h.105c139.827 0 253.652-113.818 253.708-253.706.026-67.791-26.34-131.534-74.241-179.488zM257.066 464.752h-.086c-37.839-.014-74.952-10.181-107.328-29.394l-7.7-4.57-79.812 20.937 21.303-77.816-5.014-7.979c-21.109-33.574-32.258-72.378-32.241-112.223C46.234 137.441 140.833 42.85 257.15 42.85c56.324.019 109.27 21.983 149.084 61.842 39.813 39.858 61.726 92.84 61.705 149.185-.048 116.276-94.645 210.875-210.873 210.875zm115.668-157.933c-6.339-3.173-37.506-18.507-43.318-20.625-5.81-2.115-10.037-3.172-14.263 3.172-4.225 6.346-16.374 20.626-20.073 24.857-3.697 4.229-7.395 4.761-13.734 1.586-6.34-3.173-26.766-9.866-50.979-31.465-18.846-16.81-31.568-37.569-35.266-43.916-3.698-6.346-.394-9.776 2.779-12.937 2.852-2.841 6.34-7.405 9.509-11.106 3.17-3.701 4.226-6.347 6.339-10.575 2.113-4.232 1.057-7.934-.528-11.106-1.585-3.173-14.263-34.377-19.545-47.071-5.146-12.359-10.372-10.686-14.263-10.882-3.693-.184-7.924-.223-12.15-.223s-11.094 1.586-16.905 7.932c-5.811 6.347-22.187 21.684-22.187 52.885 0 31.204 22.715 61.348 25.885 65.579 3.169 4.232 44.701 68.262 108.294 95.722 15.124 6.532 26.933 10.432 36.139 13.353 15.186 4.826 29.006 4.145 39.929 2.512 12.18-1.819 37.506-15.334 42.789-30.142 5.281-14.811 5.281-27.503 3.697-30.146-1.583-2.643-5.81-4.23-12.149-7.404z" style="fill-rule:evenodd;clip-rule:evenodd;" fill="#ffffff" opacity="1" data-original="#000000" class=""></path>
</g>
</svg>